HIERARCHY
ROOT Hips
{
  OFFSET 135.242 102.086 44.7876
  CHANNELS 6 Xposition Yposition Zposition Zrotation Xrotation Yrotation
  JOINT ToSpine
  {
    OFFSET -2.69724 7.43032 -0.144315
    CHANNELS 3 Zrotation Xrotation Yrotation
    JOINT Spine
    {
      OFFSET -0.0310711 10.7595 1.96963
      CHANNELS 3 Zrotation Xrotation Yrotation
      JOINT Spine1
      {
        OFFSET 13.1342 3.43533 0.764692
        CHANNELS 3 Zrotation Xrotation Yrotation
        JOINT Neck
        {
          OFFSET 29.8703 7.82586 -0.130764
          CHANNELS 3 Zrotation Xrotation Yrotation
          JOINT Head
          {
            OFFSET 9.52751 0.295786 -0.907742
            CHANNELS 3 Zrotation Xrotation Yrotation
            End Site
            {
              OFFSET 16.4037 0.713936 2.7358
            }
          }
        }
        JOINT LeftShoulder
        {
          OFFSET 27.5574 4.95586 2.47156
          CHANNELS 3 Zrotation Xrotation Yrotation
          JOINT LeftArm
          {
            OFFSET 1.20734 -0.998971 20.1238
            CHANNELS 3 Zrotation Xrotation Yrotation
            JOINT LeftForeArm
            {
              OFFSET 26.8049 -0.0536703 -0.155908
              CHANNELS 3 Zrotation Xrotation Yrotation
              JOINT LeftHand
              {
                OFFSET 26.6817 0 0.320147
                CHANNELS 3 Zrotation Xrotation Yrotation
                End Site
                {
                  OFFSET 18.6119 0 0.382219
                }
              }
            }
          }
        }
        JOINT RightShoulder
        {
          OFFSET 27.5927 4.71444 -2.65209
          CHANNELS 3 Zrotation Xrotation Yrotation
          JOINT RightArm
          {
            OFFSET 2.83739 -1.17114 -18.7564
            CHANNELS 3 Zrotation Xrotation Yrotation
            JOINT RightForeArm
            {
              OFFSET 28.839 -0.0548439 1.22491
              CHANNELS 3 Zrotation Xrotation Yrotation
              JOINT RightHand
              {
                OFFSET 26.5114 0 -0.101894
                CHANNELS 3 Zrotation Xrotation Yrotation
                End Site
                {
                  OFFSET 18.2168 0 0
                }
              }
            }
          }
        }
      }
    }
  }
  JOINT LeftUpLeg
  {
    OFFSET -4.76168 -1.9167 -10.2353
    CHANNELS 3 Zrotation Xrotation Yrotation
    JOINT LeftLeg
    {
      OFFSET 2.55951 -42.0585 -8.02213
      CHANNELS 3 Zrotation Xrotation Yrotation
      JOINT LeftFoot
      {
        OFFSET 3.16357 -42.5282 -3.95426
        CHANNELS 3 Zrotation Xrotation Yrotation
        JOINT LeftToeBase
        {
          OFFSET 0.346054 -6.02161 12.8035
          CHANNELS 3 Zrotation Xrotation Yrotation
          End Site
          {
            OFFSET 0.134235 -1.35082 5.13018
          }
        }
      }
    }
  }
  JOINT RightUpLeg
  {
    OFFSET -4.94151 -1.41743 10.6446
    CHANNELS 3 Zrotation Xrotation Yrotation
    JOINT RightLeg
    {
      OFFSET -2.56294 -42.0364 -7.94377
      CHANNELS 3 Zrotation Xrotation Yrotation
      JOINT RightFoot
      {
        OFFSET -3.0952 -42.555 -4.02241
        CHANNELS 3 Zrotation Xrotation Yrotation
        JOINT RightToeBase
        {
          OFFSET -0.0828122 -6.13587 12.8035
          CHANNELS 3 Zrotation Xrotation Yrotation
          End Site
          {
            OFFSET -0.131328 -1.35082 5.13018
          }
        }
      }
    }
  }
}
MOTION
Frames:	10
Frame Time:	0.0333333
125.206 93.9084 13.8961 70.6844 -30.412 -9.77288 -70.1915 0 88.8779 74.2154 72.6831 9.17102 4.5962 22.4837 1.65133 -119.757 33.19 156.839 153.855 74.0666 -121.886 0.615232 -14.1749 -20.3983 -49.4204 31.7728 -143.201 25.1279 -5.62987 -101.059 0.420957 0.000575456 0.35866 -2.0675 7.77642 40.8843 -132.496 -7.58556 89.225 10.6543 -3.75838 70.76 0.58676 0.000331077 0.0646653 -47.7099 10.0952 93.8613 -2.93997 42.8096 -7.23893 0.902618 -12.8111 -1.123 4.95354 -11.5343 5.74914 -45.6607 -16.477 78.4426 1.13659 27.8628 -5.11775 0.37156 0.933989 0.0215388 1.80981 -2.79477 -10.7275 
125.236 93.9303 13.7445 70.2514 -30.6233 -10.457 -70.1915 0 88.8779 72.9629 72.6143 10.6242 4.84228 22.6484 1.161 -120.316 33.4226 156.64 153.789 74.4147 -122.769 0.616525 -14.2716 -20.0793 -50.016 31.6087 -143.383 26.545 -5.44692 -100.017 0.420957 0.000575456 0.35866 -2.03355 7.63335 40.9615 -131.931 -7.79334 89.5809 10.8041 -4.03823 69.7206 0.58676 0.000331077 0.0646653 -47.794 10.1398 95.0592 -3.01214 42.3281 -8.37756 1.41131 -12.4709 -1.10782 4.9928 -11.7727 6.94976 -44.5409 -16.7585 78.9687 0.838482 28.5929 -4.95628 3.54278 0.323776 -0.35327 1.83075 -0.638979 -11.2524 
125.302 94.1052 13.5132 69.3198 -31.982 -11.9536 -70.1915 0 88.8779 71.8785 72.9664 12.0181 4.46542 23.1892 0.939699 -121.003 33.6914 156.883 154.577 74.7301 -123.799 0.578483 -14.5567 -20.2805 -52.7569 30.9467 -142.779 23.62 -4.19334 -98.7522 0.420957 0.000575456 0.35866 -1.96109 7.53844 40.3572 -127.89 -7.34378 88.7392 10.1965 -3.98205 68.8827 0.58676 0.000331077 0.0646653 -48.413 10.2517 97.2942 -2.8377 41.088 -7.87609 1.42474 -12.3047 -1.09671 5.22097 -12.0183 5.69574 -43.0366 -17.2514 79.2345 0.908753 28.6026 -4.0174 3.69221 2.02556 -0.558055 1.52888 -1.99384 -8.94167 
125.478 94.4007 13.318 68.0603 -34.4023 -14.4057 -70.1915 0 88.8779 68.5788 73.212 14.2311 3.75363 23.2541 2.62827 -122.473 34.0242 159.857 155.721 74.1644 -124.863 0.569876 -14.5975 -20.3863 -56.9259 30.2185 -142.164 22.4425 -2.93827 -96.3449 0.420957 0.000575456 0.35866 -1.93524 7.72276 39.3719 -121.202 -8.3718 87.5587 11.0408 -4.39342 68.5453 0.58676 0.000331077 0.0646653 -50.1428 9.67648 99.7752 -2.46339 38.4937 -6.49533 0.606489 -12.2525 -1.07592 4.99789 -11.4325 4.4772 -40.7328 -18.3898 78.9007 1.55813 29.356 0.5429 5.37829 3.10195 -0.941453 2.07659 -1.16084 -12.7927 
125.9 94.7643 13.1832 66.5051 -38.3148 -17.8171 -70.1915 0 88.8779 65.0779 72.7459 17.7077 4.10298 23.1173 2.60238 -125.057 33.9102 163.896 161.617 73.7025 -131.026 0.644264 -14.2328 -19.4324 -63.2849 30.0555 -142.156 20.4913 -1.37941 -92.973 0.420957 0.000575456 0.35866 -1.92494 7.70008 39.3162 -111.273 -11.4055 87.3771 14.0519 -5.2889 69.7151 0.58676 0.000331077 0.0646653 -53.0421 8.46942 102.605 -1.99759 35.1711 -4.29662 -0.532067 -11.6917 -1.00379 5.18093 -11.7278 4.11904 -37.6782 -20.084 77.7416 2.26594 31.1039 5.15506 6.97071 5.5273 -1.5248 1.94594 -2.35453 -11.7785 
126.446 94.9306 13.2319 64.5134 -43.529 -21.7292 -70.1915 0 88.8779 67.177 72.3845 16.0782 2.82039 22.5341 2.8721 -128.592 33.3776 169.693 165.235 72.0855 -135.439 0.74779 -13.6056 -18.0973 -71.2802 30.0598 -141.812 18.383 -0.198683 -89.9032 0.420957 0.000575456 0.35866 -2.02891 7.82387 40.2256 -101.411 -15.3237 87.1441 14.3381 -5.06093 70.8823 0.58676 0.000331077 0.0646653 -56.4921 7.34394 105.225 -1.77147 32.1054 -0.480293 -0.922913 -11.8882 -1.01112 4.79556 -10.7905 2.8567 -33.8207 -21.0653 76.1241 2.70032 34.5616 11.5429 7.70971 7.15695 -1.88977 2.78766 -5.48201 -18.6013 
127.055 94.8863 13.6808 62.3905 -48.6299 -26.0084 -70.1915 0 88.8779 63.3209 71.3799 17.9154 3.14249 21.0184 5.65651 -131.332 32.0676 174.225 174.216 70.8069 -143.878 0.769132 -13.7646 -17.0024 -81.4454 30.5484 -141.724 16.0269 0.654895 -87.0473 0.420957 0.000575456 0.35866 -1.88542 7.22502 40.4958 -93.488 -20.4652 87.4162 18.8627 -6.61389 71.2601 0.58676 0.000331077 0.0646653 -60.1237 5.2011 105.4 -2.07788 29.055 5.71754 -1.74781 -11.6304 -0.966071 4.98525 -11.0447 2.11367 -29.7524 -21.856 74.643 3.13508 39.3054 13.631 4.61393 6.70732 -1.23777 2.67844 -6.49235 -17.9469 
127.805 94.593 14.6208 60.1783 -53.0742 -30.1882 -70.1915 0 88.8779 58.0929 69.5144 21.0533 4.56249 19.0173 8.34405 -135.062 30.3306 179.598 -179.879 68.6676 -150.555 0.787008 -14.0358 -15.8777 -91.5308 31.4091 -143.405 15.5217 1.66996 -83.3646 0.420957 0.000575456 0.35866 -1.84183 6.95533 40.929 -88.5626 -25.7194 84.7565 20.9325 -7.19517 71.7474 0.58676 0.000331077 0.0646653 -63.4438 2.60963 104.129 -2.13359 26.8413 12.3096 -2.90378 -11.9198 -0.966134 4.87523 -10.7873 1.88397 -27.0355 -22.5864 71.9949 2.82592 42.595 7.68369 1.34097 4.27013 -0.406455 3.68856 -0.986754 -23.3205 
128.771 94.1877 16.0784 57.408 -56.9322 -33.8535 -70.1915 0 88.8779 54.8344 66.4962 23.1518 5.72983 16.082 10.7537 -136.046 28.0815 -175.861 -174.192 65.9835 -155.264 0.90873 -13.3877 -13.1546 -99.5569 34.1996 -145.993 17.2108 3.04003 -79.6609 0.420957 0.000575456 0.35866 -1.75553 6.44432 41.7818 -84.1254 -29.5312 80.4995 20.5612 -6.98662 71.9128 0.58676 0.000331077 0.0646653 -66.2117 1.47125 103.86 -1.82829 25.9055 17.3006 -2.96763 -12.1643 -0.990937 4.9942 -10.5157 -1.1035 -26.55 -24.3358 63.8542 0.954617 43.8887 -7.10097 -6.80195 4.27379 0.950391 1.82686 6.41907 -12.0041 
129.664 93.4864 17.9763 54.4426 -60.7987 -37.7788 -70.1915 0 88.8779 52.3488 63.2429 24.3612 8.03152 13.1381 12.6948 -139.341 25.2477 -171.885 -167.223 62.9481 -163.061 1.05288 -12.2884 -7.97421 -107.288 38.1669 -148.427 18.6969 5.33956 -74.0306 0.420957 0.000575456 0.35866 -1.49074 5.61663 41.3112 -82.9021 -32.3385 74.882 23.9881 -8.01944 72.4587 0.58676 0.000331077 0.0646653 -68.5164 1.16232 105.37 -1.53321 27.4532 15.5006 -1.47036 -10.1767 -0.837046 7.20945 -15.5295 3.81617 -28.9527 -25.0691 55.7022 -0.617151 43.1222 -16.5847 -3.84783 -0.429133 0.664155 -3.42441 9.57906 9.17748 
